<?xml version="1.0"?>
<svg xmlns="http://www.w3.org/2000/svg" id="Capa_1" enable-background="new 0 0 512.009 512.009" height="512px" viewBox="0 0 512.009 512.009" width="512px"><g><g><g><path d="m229.757 226.393c-2.35-10.16-10.6-23.21-20.24-20.98-10.38 2.39-14.13 13.75-14.16 13.86-3.45 11.85-17.99 14.5-25.45 5.95-4.63-4.7-11.94-7.92-18.86-6.32-9.51 2.2-11.42 17.19-8.99 27.73 4.74 20.52 25.64 38.69 57.87 50.62 23.74-24.85 34.56-50.34 29.83-70.86zm0 0c-2.35-10.16-10.6-23.21-20.24-20.98-10.38 2.39-14.13 13.75-14.16 13.86-3.45 11.85-17.99 14.5-25.45 5.95-4.63-4.7-11.94-7.92-18.86-6.32-9.51 2.2-11.42 17.19-8.99 27.73 4.74 20.52 25.64 38.69 57.87 50.62 23.74-24.85 34.56-50.34 29.83-70.86zm150.66 185.88-87.71-380.01c-1.86-8.07-9.92-13.1-17.99-11.24-14.475 3.341-246.918 56.99-263.08 60.72-8.08 1.86-13.11 9.92-11.25 17.99l87.71 380.01c1.87 8.07 9.92 13.11 17.99 11.24l263.09-60.72c8.07-1.86 13.1-9.92 11.24-17.99zm-283.33-227.1c-8.09 1.87-16.13-3.19-17.99-11.24l-6.75-29.23c-1.86-8.07 3.17-16.13 11.24-17.99 8.08-1.86 16.13 3.17 17.99 11.24l6.75 29.23c1.86 8.08-3.17 16.13-11.24 17.99zm117.15 140.16c-3.97 3.78-9.68 5.08-14.88 3.43-64.9-20.59-82.07-56.07-86.53-75.38-6.5-28.14 4.98-57.59 31.48-63.71 12.06-2.79 23-.37 31.64 3.71 5.98-7.46 14.76-14.42 26.82-17.21 26.71-6.16 49.77 15.53 56.22 43.48 4.45 19.31 4.57 58.72-44.75 105.68zm82.98 59.96c-8.09 1.87-16.13-3.19-17.99-11.24l-6.75-29.23c-1.86-8.07 3.17-16.13 11.25-17.99 8.06-1.87 16.12 3.17 17.99 11.24l6.74 29.23c1.86 8.07-3.17 16.13-11.24 17.99zm-87.7-179.88c-10.38 2.39-14.13 13.75-14.16 13.86-3.45 11.85-17.99 14.5-25.45 5.95-4.63-4.7-11.94-7.92-18.86-6.32-9.51 2.2-11.42 17.19-8.99 27.73 4.74 20.52 25.64 38.69 57.87 50.62 23.74-24.85 34.56-50.34 29.83-70.86-2.35-10.16-10.6-23.21-20.24-20.98z" data-original="#000000" class="active-path" data-old_color="#000000" fill="#3182CE"/></g><path d="m378.517 270.643-30.48-132.07c.09.02.19.04.28.06 38.95 9.29 41.15 86.08 30.53 130.65-.11.45-.22.91-.33 1.36z" data-original="#000000" class="active-path" data-old_color="#000000" fill="#3182CE"/><path d="m511.597 100.443-90.41 379.38c-1.92 8.05-10.01 13.03-18.07 11.11l-80.41-19.16 53.21-12.28c24.134-5.56 39.344-29.622 33.73-53.97l-18.62-80.69c7.13-15.04 12.92-31.49 17-48.59 19.51-81.82-3.66-155.08-52.75-166.79-4.72-1.12-9.51-1.65-14.33-1.58l-15.51-67.21 175.05 41.71c8.06 1.92 13.03 10.01 11.11 18.07z" data-original="#000000" class="active-path" data-old_color="#000000" fill="#3182CE"/></g></g> </svg>
